#!OML:ASF H:\Terrain\Patient Classification 1\Walking\liu\liu.ASF
:FULLY-SPECIFIED
:DEGREES
178
root 8.925467 18.393322 -13.479510 8.664898 7.294309 -1.986116
lowerback -5.027154 0.507989 0.127377
upperback -0.389470 0.587375 3.806594
thorax 2.384030 0.280379 3.890513
lowerneck -22.791561 -9.049215 -16.561161
upperneck 16.076830 -10.939225 16.993130
head 10.588171 -4.361720 7.049405
rclavicle 0.000000 0.000000
rhumerus -42.005367 12.640870 -86.879318
rradius 45.496552
rwrist -23.283258
rhand -33.343861 -27.960461
rfingers 7.837522
rthumb -3.981318 -60.904358
lclavicle 0.000000 0.000000
lhumerus -49.507702 -14.136649 106.047264
lradius 35.874409
lwrist 19.248020
lhand -13.901690 -28.195309
lfingers 7.837522
lthumb 14.786420 4.305620
rfemur -22.505560 3.157396 29.021191
rtibia 30.413239
rfoot -19.163210 2.112561
rtoes -18.693291
lfemur -28.895128 9.016502 -19.955980
ltibia 68.832275
lfoot -10.916301 11.562651
ltoes -8.127625
179
root 8.920484 18.384411 -13.349489 8.639708 7.101424 -2.264636
lowerback -5.025438 0.443211 0.337044
upperback -0.481336 0.492533 3.832686
thorax 2.295623 0.236128 3.792118
lowerneck -22.195911 -8.626618 -16.246670
upperneck 15.873440 -10.500381 16.990051
head 10.321366 -4.168065 7.072604
rclavicle -0.000000 -0.000000
rhumerus -41.372868 12.605230 -86.961601
rradius 45.639553
rwrist -23.088890
rhand -33.382030 -27.862450
rfingers 7.837522
rthumb -4.018113 -60.805801
lclavicle -0.000000 -0.000000
lhumerus -49.870041 -12.928519 105.391769
lradius 36.052280
lwrist 18.788879
lhand -13.925779 -27.901279
lfingers 7.837522
lthumb 14.763320 4.601168
rfemur -22.072710 3.459104 29.411690
rtibia 30.514330
rfoot -19.444151 2.103255
rtoes -17.732988
lfemur -30.313030 8.985020 -19.943880
ltibia 68.619431
lfoot -12.043349 11.726549
ltoes -7.708107
180
root 8.915324 18.369011 -13.216940 8.567889 7.001632 -2.416161
lowerback -4.985871 0.093828 0.264558
upperback -0.619493 0.035982 3.774870
thorax 2.157430 0.009337 3.743223
lowerneck -21.732479 -7.833672 -14.874970
upperneck 15.995540 -9.732757 16.353260
head 10.048655 -3.811764 6.741482
rclavicle 0.000000 0.000000
rhumerus -40.960041 13.066681 -87.539871
rradius 45.934021
rwrist -22.851290
rhand -33.447590 -27.363932
rfingers 7.837522
rthumb -4.081429 -60.306068
lclavicle 0.000000 0.000000
lhumerus -50.341721 -11.445610 104.316628
lradius 36.248520
lwrist 19.050571
lhand -13.493151 -27.303761
lfingers 7.837522
lthumb 15.180110 5.170715
rfemur -21.590910 3.817924 29.702751
rtibia 30.599140
rfoot -19.971600 1.740255
rtoes -17.240740
lfemur -31.630831 8.812496 -20.035069
ltibia 68.253349
lfoot -13.129379 11.715219
ltoes -3.780227
181
root 8.917007 18.360870 -13.077130 8.472497 6.772315 -2.373701
lowerback -5.188128 0.893916 0.529098
upperback -0.299153 1.075342 3.785419
thorax 2.544784 0.526371 3.676750
lowerneck -21.733690 -8.771081 -16.642120
upperneck 15.724500 -10.663477 17.128321
head 10.244915 -4.274303 7.164146
rclavicle -0.000000 -0.000000
rhumerus -40.325783 11.132880 -85.947838
rradius 46.434521
rwrist -22.930161
rhand -33.374660 -26.696341
rfingers 7.837522
rthumb -4.011029 -59.639690
lclavicle -0.000000 -0.000000
lhumerus -49.666977 -12.620080 105.214119
lradius 36.100460
lwrist 19.201490
lhand -14.618561 -27.017981
lfingers 7.837522
lthumb 14.095510 5.527368
rfemur -20.991631 4.057680 29.743450
rtibia 30.722010
rfoot -20.378050 1.652123
rtoes -16.224451
lfemur -32.690571 8.622075 -20.383001
ltibia 67.661110
lfoot -13.949759 12.041591
ltoes -4.408536
182
root 8.915852 18.358009 -12.942710 8.561036 6.511890 -2.443859
lowerback -4.629350 1.095367 0.741899
upperback -2.356508 1.420265 3.722653
thorax 0.104127 0.727611 3.470060
lowerneck -14.889380 -7.803345 -17.803610
upperneck 14.441681 -10.026644 17.932421
head 8.587227 -4.278769 7.817920
rclavicle -0.000000 0.000000
rhumerus -44.795631 11.456280 -86.347473
rradius 48.034798
rwrist -23.338480
rhand -33.546589 -27.397921
rfingers 7.837522
rthumb -4.177052 -60.338409
lclavicle -0.000000 0.000000
lhumerus -54.225929 -12.141800 105.944740
lradius 36.619442
lwrist 18.526419
lhand -16.289461 -27.720440
lfingers 7.837522
lthumb 12.484340 4.919695
rfemur -20.650518 4.386371 29.892061
rtibia 30.925730
rfoot -20.818161 1.534720
rtoes -15.561041
lfemur -33.965908 8.598733 -20.613121
ltibia 66.915749
lfoot -13.939421 12.628330
ltoes -8.726861
183
root 8.917282 18.339090 -12.810161 8.554315 6.343931 -2.436005
lowerback -4.425751 1.193566 0.718122
upperback -2.790216 1.572923 3.691215
thorax -0.462838 0.809804 3.447136
lowerneck -13.261271 -7.541402 -17.960911
upperneck 14.027420 -9.851326 18.091040
head 8.146049 -4.266075 7.942913
rclavicle 0.000000 -0.000000
rhumerus -45.866589 11.454850 -86.293350
rradius 49.300900
rwrist -23.777269
rhand -33.990662 -27.931860
rfingers 7.837522
rthumb -4.605898 -60.864212
lclavicle 0.000000 -0.000000
lhumerus -55.117264 -12.159510 106.212036
lradius 36.445419
lwrist 18.687790
lhand -16.891380 -28.527290
lfingers 7.837522
lthumb 11.903760 4.143986
rfemur -20.221741 4.558400 29.986221
rtibia 31.126810
rfoot -21.112959 1.405723
rtoes -15.908530
lfemur -35.135319 8.563544 -20.874699
ltibia 66.116379
lfoot -13.975720 12.883200
ltoes -8.503363
184
root 8.922166 18.316650 -12.670350 8.286883 6.237275 -2.260753
lowerback -4.390760 1.235498 0.471083
upperback -2.222319 1.618804 3.630451
thorax 0.094573 0.827638 3.531297
lowerneck -14.428810 -7.693719 -17.486700
upperneck 14.013670 -9.940292 17.843979
head 8.331213 -4.251071 7.740766
rclavicle -0.000000 -0.000000
rhumerus -44.295238 10.883136 -85.942451
rradius 49.434662
rwrist -23.828859
rhand -34.448040 -27.767408
rfingers 7.837522
rthumb -5.047548 -60.690742
lclavicle -0.000000 -0.000000
lhumerus -54.015060 -12.132230 105.992813
lradius 36.070210
lwrist 19.058489
lhand -17.102800 -27.042950
lfingers 7.837522
lthumb 11.699820 5.638996
rfemur -19.394539 4.597417 29.905371
rtibia 31.232300
rfoot -21.371241 1.336027
rtoes -15.604710
lfemur -35.888050 8.423129 -21.333731
ltibia 65.258270
lfoot -14.047441 13.204950
ltoes -3.191848
185
root 8.919989 18.306530 -12.532300 8.248823 6.100501 -2.414225
lowerback -4.624609 1.284921 0.548286
upperback -1.690832 1.658701 3.613269
thorax 0.771610 0.839321 3.485130
lowerneck -16.031179 -7.873459 -16.927351
upperneck 14.346860 -10.073613 17.588120
head 8.707919 -4.232723 7.516652
rclavicle 0.000000 -0.000000
rhumerus -42.490360 10.205118 -85.711670
rradius 49.369320
rwrist -23.820061
rhand -34.528889 -27.702620
rfingers 7.837522
rthumb -5.125626 -60.624298
lclavicle 0.000000 -0.000000
lhumerus -53.107998 -11.718080 105.464478
lradius 35.940193
lwrist 18.336121
lhand -17.632561 -26.022921
lfingers 7.837522
lthumb 11.188761 6.684557
rfemur -18.790310 4.819122 30.191921
rtibia 31.214041
rfoot -21.943129 1.085904
rtoes -15.313100
lfemur -36.950760 8.427397 -21.518089
ltibia 64.344284
lfoot -12.987590 14.195610
ltoes 3.981780
186
root 8.920362 18.307190 -12.389410 8.299533 5.819550 -2.561064
lowerback -5.204760 1.247235 0.590081
upperback -0.515363 1.555730 3.513950
thorax 2.313454 0.770670 3.388187
lowerneck -20.230209 -8.154267 -15.657070
upperneck 15.478430 -10.247721 17.094879
head 9.772004 -4.095080 7.065388
rclavicle 0.000000 0.000000
rhumerus -39.504299 9.739642 -85.735428
rradius 49.450390
rwrist -24.098801
rhand -34.870331 -27.957159
rfingers 7.837522
rthumb -5.455241 -60.871250
lclavicle 0.000000 0.000000
lhumerus -50.757080 -11.920589 104.738258
lradius 35.549690
lwrist 18.322479
lhand -17.972681 -26.585239
lfingers 7.837522
lthumb 10.860674 6.138154
rfemur -18.153410 4.837833 30.458450
rtibia 31.001301
rfoot -22.350239 1.294194
rtoes -14.791150
lfemur -37.991798 8.317133 -21.596079
ltibia 63.214363
lfoot -17.027670 13.449149
ltoes -8.997383
187
root 8.927281 18.313681 -12.246961 8.136491 5.632418 -2.450492
lowerback -4.541460 1.587564 0.747083
upperback -2.136134 2.072103 3.513114
thorax 0.256345 1.050636 3.277879
lowerneck -14.491840 -7.643328 -17.462280
upperneck 14.393830 -9.933055 17.974442
head 8.469417 -4.231073 7.793005
rclavicle -0.000000 -0.000000
rhumerus -42.966328 9.589767 -85.553383
rradius 50.332592
rwrist -24.678940
rhand -36.238293 -29.038570
rfingers 7.837522
rthumb -6.776022 -61.918121
lclavicle -0.000000 -0.000000
lhumerus -54.399399 -12.614360 106.271439
lradius 35.701271
lwrist 18.699780
lhand -17.561060 -26.206949
lfingers 7.837522
lthumb 11.257730 6.497238
rfemur -17.147570 4.710112 30.422041
rtibia 30.545349
rfoot -22.472340 1.601248
rtoes -14.359179
lfemur -38.643551 7.805072 -21.771969
ltibia 61.816040
lfoot -17.196301 13.357409
ltoes -6.918252
